<svg width="156" height="58" viewBox="0 0 156 58" fill="none" xmlns="http://www.w3.org/2000/svg">
<path d="M156 0H0V58H156V0Z" fill="#8C0014"/>
<path d="M38.6777 26.6715L33.1247 18.9023H20.0586V22.1775H22.3396V35.5415H20.0586V38.8142H28.3319V35.5415H26.022V26.8795L34.557 38.8142L43.063 26.8795V35.5415H40.7531V38.8142H55.7183V35.5415H53.4107V22.1775H55.7183V18.9023H44.2038L38.6777 26.6715Z" fill="white"/>
<path d="M70.6699 23.8801H57.947V27.1458H60.2666V35.5484H57.947V38.814H72.9909V35.5484H70.6699V23.8801Z" fill="white"/>
<path d="M69.0906 21.0168L67.4828 18.349L62.4044 20.6315L64.0134 23.327L69.0906 21.0168Z" fill="white"/>
<path d="M85.2488 23.3273C77.18 23.3273 74.1053 27.712 74.1053 31.3964C74.1053 34.8496 76.7672 39.3675 85.2619 39.3675C91.7773 39.3675 95.3231 36.2505 96.1821 33.6264C95.3935 33.6264 93.2008 33.6274 90.4135 33.6274C90.203 34.4303 89.1669 36.3432 86.5901 36.3432C84.7917 36.3432 83.6453 35.1978 83.6453 33.9536V32.4725L96.3309 32.4715C96.3309 32.4715 96.3926 32.0823 96.3926 31.3978C96.3926 27.2974 92.2207 23.3273 85.2488 23.3273ZM86.877 29.9802H83.6453V27.9398C83.6453 27.2945 84.2064 26.3631 85.2517 26.3631C86.3787 26.3631 86.877 27.3346 86.877 27.9474V29.9802Z" fill="white"/>
<path d="M110.769 18.9023H97.507V22.1764H99.8171V35.5406H97.507V38.8142H113.108V35.5406H110.769V18.9023Z" fill="white"/>
<path d="M135.894 32.4715C135.894 32.4715 135.953 32.0823 135.953 31.3978C135.953 27.2974 131.783 23.3273 124.809 23.3273C116.742 23.3273 113.665 27.712 113.665 31.3964C113.665 34.8496 116.33 39.3675 124.824 39.3675C131.34 39.3675 134.885 36.2505 135.745 33.6264C134.955 33.6264 132.763 33.6274 129.977 33.6274C129.765 34.4303 128.73 36.3432 126.152 36.3432C124.354 36.3432 123.209 35.1978 123.209 33.9536V32.4725L135.894 32.4715ZM123.209 27.9398C123.209 27.2945 123.768 26.3631 124.814 26.3631C125.942 26.3631 126.439 27.3346 126.439 27.9474V29.9802H123.209V27.9398Z" fill="white"/>
</svg>
